{"title":"Non-Stop 2014.1080p.BluRay 5.1.x264 . NVEE","uid":12051072,"size":2328342657,"categoryP":"video","categoryS":"hd___movies","magnet":"?xt=urn:btih:c25d4705cf765468ece94d66317ac1cdeaeb6349&amp;dn=Non-Stop+2014.1080p.BluRay+5.1.x264+.+NVEE&amp;tr=udp%3A%2F%2Ftracker.openbittorrent.com%3A80&amp;tr=udp%3A%2F%2Fopen.demonii.com%3A1337&amp;tr=udp%3A%2F%2Ftracker.coppersurfer.tk%3A6969&amp;tr=udp%3A%2F%2Fexodus.desync.com%3A6969","seeders":0,"leechers":1,"uploader":".NVEE","files":1,"time":1434994403,"description":"Quick note : \nIf you require a torrent release I have posted in the past, not seeding,... \nPlease do not hesitate to inform me in any means you find fit to do so. \nTorrent requests also &quot;Always Welcome.&quot; \n\n \nFULL_INFOs \n\n99.99% &gt;&gt;&gt; SYNCED GUARANTEED \n\n&quot;Totally scrutinized / analyzed to be a verified torrent.&quot; \n___________________________________________ \n\nSource : Blu-ray ~ 1080p \n\n \n\nSpoken Language : English \n\nAudio : 6 ~ Channels Only \n\n \nSubs Info : \n\nx2 English UTF-8 EMBEDDED. \n\nText #1 \nID : 3 \nFormat : Timed Text \nCodec ID : tx3g \nDuration : 1h 40mn \nBit rate mode : Variable \nBit rate : 74 bps \nStream size : 54.6 KiB (0%) \nTitle : SDH ~ Hearing Impaired \nLanguage : English \nEncoded date : UTC 2014-05-31 10:52:09 \nTagged date : UTC 2014-05-31 10:52:09 \n\nID : 4 \nFormat : Timed Text \nCodec ID : tx3g \nDuration : 1h 40mn \nBit rate mode : Variable \nBit rate : 73 bps \nStream size : 53.4 KiB (0%) \nLanguage : English \nEncoded date : UTC 2014-05-31 10:52:09 \nTagged date : UTC 2014-05-31 10:52:09 \n\nAll .srt UTF-8 &amp; .idx subs can be turned On/Off \n_____________________________________ \n--------------------------------------------------------------------------------- \n \nGeneral Metadata \n\nComplete name : Non-Stop 2014.800p.BluRay.5.1.x264 . NVEE.mp4 \nFormat : MPEG-4 \nFormat profile : Base Media \nCodec ID : isom \nFile size : 2.17 GiB \nDuration : 1h 46mn \nOverall bit rate mode : Variable \nOverall bit rate : 2 912 Kbps \nEncoded date : UTC 2014-05-31 10:40:13 \nTagged date : UTC 2014-05-31 10:40:13 \n\n \nVideo \n\nID : 1 \nFormat : AVC \nFormat/Info : Advanced Video Codec \nFormat profile : &lt;a class=&quot;__cf_email__&quot; href=&quot;/cdn-cgi/l/email-protection&quot; data-cfemail=&quot;b4fcddd3dcf4f8809a85&quot;&gt;[email&amp;#160;protected]&lt;/a&gt;&lt;script data-cfhash='f9e31' type=&quot;text/javascript&quot;&gt;\n/* &lt;![CDATA[ */!function(){try{var t=&quot;currentScript&quot;in document?document.currentScript:function(){for(var t=document.getElementsByTagName(&quot;script&quot;),e=t.length;e--;)if(t[e].getAttribute(&quot;data-cfhash&quot;))return t[e]}();if(t&amp;&amp;t.previousSibling){var e,r,n,i,c=t.previousSibling,a=c.getAttribute(&quot;data-cfemail&quot;);if(a){for(e=&quot;&quot;,r=parseInt(a.substr(0,2),16),n=2;a.length-n;n+=2)i=parseInt(a.substr(n,2),16)^r,e+=String.fromCharCode(i);e=document.createTextNode(e),c.parentNode.replaceChild(e,c)}t.parentNode.removeChild(t);}}catch(u){}}()/* ]]&gt; */&lt;/script&gt; \nFormat settings, CABAC : Yes \nFormat settings, ReFrames : 3 frames \nCodec ID : avc1 \nCodec ID/Info : Advanced Video Coding \nDuration : 1h 46mn \nBit rate : 2 463 Kbps \nMaximum bit rate : 9 750 Kbps \nWidth : 1 920 pixels \nHeight : 800 pixels \nDisplay aspect ratio : 2.40:1 \nFrame rate mode : Constant \nFrame rate : 23.976 fps \nColor space : YUV \nChroma subsampling : 4:2:0 \nBit depth : 8 bits \nScan type : Progressive \nBits/(Pixel*Frame) : 0.067 \nStream size : 1.83 GiB (85%) \nWriting library : x264 core 142 r2431 ac76440 \nEncoded from Physical Blu-ray / Region B \n\n \nAudio \n\nID : 2 \nFormat : AC-3 \nFormat/Info : Audio Coding 3 \nMode extension : CM (complete main) \nFormat settings, Endianness : Big \nCodec ID : ac-3 \nDuration : 1h 46mn \nBit rate mode : Constant \nBit rate : 448 Kbps \nChannel(s) : 6 channels \nChannel positions : Front: L C R, Side: L R, LFE \nSampling rate : 48.0 KHz \nBit depth : 16 bits \nCompression mode : Lossy \nStream size : 342 MiB (15%) \nLanguage : English \nEncoded date : UTC 2014-05-31 10:51:01 \nTagged date : UTC 2014-05-31 10:52:09 \nEncoded from Physical Blu-ray 6 Channel audio &quot;Always&quot;. \n\n \n\n \n\n \n\n\n\n\nEnj0y !","torrent":{"xt":"urn:btih:c25d4705cf765468ece94d66317ac1cdeaeb6349","amp;dn":"Non-Stop+2014.1080p.BluRay+5.1.x264+.+NVEE","amp;tr":["udp%3A%2F%2Ftracker.openbittorrent.com%3A80","udp%3A%2F%2Fopen.demonii.com%3A1337","udp%3A%2F%2Ftracker.coppersurfer.tk%3A6969","udp%3A%2F%2Fexodus.desync.com%3A6969"],"infoHash":"c25d4705cf765468ece94d66317ac1cdeaeb6349","infoHashBuffer":{"type":"Buffer","data":[194,93,71,5,207,118,84,104,236,233,77,102,49,122,193,205,234,235,99,73]},"announce":[],"urlList":[]}}